<?xml version="1.0" encoding="UTF-8" standalone="no"?>
<!-- Created with Inkscape (http://www.inkscape.org/) -->

<svg
   version="1.1"
   id="svg1"
   width="108"
   height="108"
   viewBox="0 0 108 108"
   sodipodi:docname="logo-easy-gift_desktop2.svg"
   inkscape:export-filename="logo-easy-gift_desktop2.png"
   inkscape:export-xdpi="96"
   inkscape:export-ydpi="96"
   inkscape:version="1.4 (e7c3feb1, 2024-10-09)"
   xmlns:inkscape="http://www.inkscape.org/namespaces/inkscape"
   xmlns:sodipodi="http://sodipodi.sourceforge.net/DTD/sodipodi-0.dtd"
   xmlns="http://www.w3.org/2000/svg"
   xmlns:svg="http://www.w3.org/2000/svg">
  <defs
     id="defs1" />
  <sodipodi:namedview
     id="namedview1"
     pagecolor="#ffffff"
     bordercolor="#000000"
     borderopacity="0.25"
     inkscape:showpageshadow="2"
     inkscape:pageopacity="0.0"
     inkscape:pagecheckerboard="0"
     inkscape:deskcolor="#d1d1d1"
     inkscape:zoom="1.8058116"
     inkscape:cx="-35.718011"
     inkscape:cy="82.511375"
     inkscape:window-width="1512"
     inkscape:window-height="945"
     inkscape:window-x="1032"
     inkscape:window-y="1477"
     inkscape:window-maximized="0"
     inkscape:current-layer="g1">
    <inkscape:page
       x="0"
       y="0"
       inkscape:label="1"
       id="page1"
       width="108"
       height="108"
       margin="0"
       bleed="0" />
  </sodipodi:namedview>
  <g
     id="g1"
     inkscape:groupmode="layer"
     inkscape:label="1">
    <path
       id="path1"
       d="m 41.262,7.836 c -16.805,0 -30.426,14.656 -30.426,32.734 0.023,5.289 1.242,10.492 3.547,15.168 l -0.098,0.434 -4.992,15.117 13.594,-4.715 0.226,0.16 c 5.235,4.235 11.602,6.536 18.149,6.567 16.804,0 30.429,-14.656 30.429,-32.731 0,-18.078 -13.625,-32.734 -30.429,-32.734 z"
       style="fill:none;stroke:#fc7182;stroke-width:3.77128;stroke-linecap:round;stroke-linejoin:round;stroke-miterlimit:4;stroke-dasharray:none;stroke-opacity:0.921569"
       transform="scale(1.3333333)" />
    <path
       id="path2"
       d="M 9.446,37.104 45.603,37.101 V 47.339 L 9.447,47.338 Z"
       style="fill:none;stroke:#555de6;stroke-width:1.60604;stroke-linecap:round;stroke-linejoin:round;stroke-miterlimit:4;stroke-dasharray:none;stroke-opacity:1"
       transform="matrix(1.3333333,-0.37139733,0.37139733,1.3333333,0,0)" />
    <path
       id="path3"
       d="m 11.892,47.297 31.534,0.002 10e-4,19.239 -31.536,0.001 z"
       style="fill:none;stroke:#555de6;stroke-width:1.42112;stroke-linecap:round;stroke-linejoin:round;stroke-miterlimit:4;stroke-dasharray:none;stroke-opacity:1"
       transform="matrix(1.3333333,-0.37139733,0.37139733,1.3333333,0,0)" />
    <path
       id="path4"
       d="M 23.979,37.14 30.268,37.138 30.27,66.611 23.981,66.61 Z"
       style="fill:none;stroke:#555de6;stroke-width:1.41131;stroke-linecap:round;stroke-linejoin:round;stroke-miterlimit:4;stroke-dasharray:none;stroke-opacity:1"
       transform="matrix(1.3333333,-0.37139733,0.37139733,1.3333333,0,0)" />
    <path
       id="path5"
       d="m 37.309,28.434 c 0.496,-0.313 0.347,-1.805 0.347,-3.122 0,-1.832 -0.582,-5.726 0.555,-6.867 0.867,-0.867 4.207,-0.484 4.648,0.832 1.219,3.664 -1.824,7.137 -4.648,9.016"
       style="fill:none;stroke:#555de6;stroke-width:1.47522;stroke-linecap:round;stroke-linejoin:round;stroke-miterlimit:4;stroke-dasharray:none;stroke-opacity:1"
       transform="scale(1.3333333)" />
    <path
       id="path6"
       d="m 37.438,28.234 c -0.583,0 -1.258,-1.339 -1.961,-2.453 -0.977,-1.547 -2.567,-5.152 -4.133,-5.508 -1.199,-0.269 -3.817,1.836 -3.485,3.188 0.922,3.746 5.352,5.055 8.743,5.141"
       style="fill:none;stroke:#555de6;stroke-width:1.47522;stroke-linecap:round;stroke-linejoin:round;stroke-miterlimit:4;stroke-dasharray:none;stroke-opacity:1"
       transform="scale(1.3333333)" />
  </g>
</svg>
